<?xml version="1.0" encoding="UTF-8" ?>
<!DOCTYPE svg PUBLIC "-//W3C//DTD SVG 1.1//EN" "http://www.w3.org/Graphics/SVG/1.1/DTD/svg11.dtd">
<svg width="128pt" height="128pt" viewBox="0 0 128 128" version="1.1" xmlns="http://www.w3.org/2000/svg">
<g id="#000000ff">
<path fill="#000000" opacity="1.00" d=" M 52.10 12.14 C 59.13 8.63 67.30 6.65 75.07 8.58 C 81.08 10.14 87.34 8.62 93.38 9.94 C 97.56 10.80 101.69 12.17 106.00 12.16 C 111.56 12.22 117.28 12.63 122.48 14.71 C 124.05 15.71 125.92 18.54 124.12 20.08 C 121.10 21.05 117.79 20.78 114.82 22.01 C 108.17 24.86 100.99 26.07 94.07 28.10 C 97.92 32.31 102.82 35.26 107.48 38.45 C 110.34 40.26 111.35 43.64 112.08 46.75 C 113.84 54.59 114.88 62.67 118.08 70.11 C 121.53 79.63 125.01 89.18 127.65 98.97 C 125.66 97.86 123.70 96.71 121.79 95.46 C 123.36 100.75 124.76 106.10 125.86 111.51 C 124.05 110.63 121.79 110.14 120.70 108.28 C 118.86 105.25 118.32 101.68 117.27 98.35 C 117.56 105.66 119.10 112.84 119.39 120.15 C 114.53 116.60 112.62 110.76 111.63 105.07 C 111.59 110.73 111.95 116.39 111.67 122.04 C 104.91 116.57 105.67 107.19 104.14 99.47 C 103.52 106.92 103.75 114.46 102.21 121.81 C 100.04 119.10 98.18 116.05 97.63 112.57 C 96.68 106.77 97.73 100.91 97.70 95.09 C 95.36 101.58 94.80 108.58 92.09 114.94 C 90.25 111.93 88.24 108.67 88.66 104.97 C 89.01 99.86 89.59 94.75 89.31 89.61 C 86.36 93.02 83.64 96.64 80.32 99.69 C 78.39 96.15 77.89 92.16 78.50 88.20 C 76.84 86.09 75.44 83.79 74.29 81.36 C 73.03 80.44 71.71 79.59 70.58 78.51 C 70.43 76.82 70.73 75.13 70.90 73.45 C 68.89 71.82 66.86 70.20 64.72 68.74 C 64.58 68.29 64.31 67.39 64.17 66.94 C 58.11 59.44 51.57 52.27 46.60 43.95 C 44.62 45.25 42.51 47.58 40.07 45.64 C 41.53 42.90 43.21 40.30 44.94 37.73 C 41.87 40.35 38.81 43.02 35.35 45.13 C 34.96 42.19 36.40 39.69 38.20 37.52 C 36.70 38.33 35.20 39.11 33.68 39.88 C 31.39 37.74 28.81 35.95 26.18 34.25 C 19.10 34.62 11.99 34.63 4.90 34.85 C 2.66 35.15 1.52 32.86 0.00 31.68 L 0.00 30.32 C 0.37 30.20 1.11 29.96 1.48 29.85 C 2.20 26.75 5.12 25.54 7.74 24.49 C 7.67 23.85 7.53 22.56 7.46 21.91 C 14.79 22.76 22.14 23.63 29.53 23.33 C 29.53 22.62 29.52 21.21 29.51 20.51 C 36.97 17.52 44.88 15.72 52.10 12.14 M 115.88 18.33 C 118.38 18.65 120.95 19.72 123.48 19.09 C 122.26 16.33 118.24 18.19 115.88 18.33 Z" />
</g>
</svg>
